# Blender 4.3.0
# www.blender.org
mtllib tuffft.mtl
o ElwFor_Grass01
v -0.043951 -0.000000 -0.028862
v -0.073450 0.093969 -0.010460
v -0.059646 0.093969 0.024406
v -0.112586 0.177836 0.038645
v -0.121789 0.177836 0.015400
v -0.186371 0.247302 0.047692
v -0.181769 0.247302 0.059314
v -0.271982 0.279859 0.088310
v -0.025545 -0.000000 0.017627
v 0.036468 -0.000000 0.013736
v 0.063431 0.093969 -0.008213
v 0.045371 0.093969 -0.041078
v 0.096112 0.177836 -0.061831
v 0.108152 0.177836 -0.039922
v 0.168184 0.247302 -0.080044
v 0.162164 0.247302 -0.090999
v 0.248037 0.279859 -0.131059
v 0.012387 -0.000000 -0.030083
v -0.045655 0.144537 0.074392
v -0.005953 0.082693 0.037027
v -0.025121 0.082693 0.019646
v -0.012923 -0.000000 -0.000226
v 0.012634 -0.000000 0.022948
v -0.058434 0.144537 0.062805
v -0.097138 0.191110 0.111910
v -0.090749 0.191110 0.117703
v -0.140028 0.202387 0.165631
v 0.004634 -0.000000 -0.056542
v -0.005848 0.093969 -0.089693
v -0.043053 0.093969 -0.084998
v -0.043670 0.177836 -0.139816
v -0.018867 0.177836 -0.142946
v -0.034072 0.247302 -0.213531
v -0.046474 0.247302 -0.211967
v -0.052109 0.279859 -0.306557
v -0.044972 -0.000000 -0.050283
v -0.080468 0.144537 -0.066189
v -0.044421 0.082693 -0.025287
v -0.026423 0.082693 -0.043877
v -0.006960 -0.000000 -0.031036
v -0.030957 -0.000000 -0.006249
v -0.068470 0.144537 -0.078582
v -0.116283 0.191110 -0.118870
v -0.122282 0.191110 -0.112674
v -0.168573 0.202387 -0.163493
v -0.020423 0.078310 0.116509
v -0.001738 0.044803 0.078214
v -0.026022 0.044803 0.069279
v -0.023897 -0.000000 0.051015
v 0.008481 -0.000000 0.062928
v -0.036612 0.078310 0.110553
v -0.049365 0.103543 0.157702
v -0.041270 0.103543 0.160681
v -0.063796 0.109653 0.209413
v 0.022500 0.144537 -0.083040
v -0.002429 0.082693 -0.034553
v 0.021446 0.082693 -0.024579
v 0.016592 -0.000000 -0.001772
v -0.015241 -0.000000 -0.015071
v 0.038417 0.144537 -0.076391
v 0.058482 0.191110 -0.135608
v 0.050523 0.191110 -0.138932
v 0.080949 0.202387 -0.200574
v 0.080978 0.144537 0.081882
v 0.050048 0.082693 0.036985
v 0.029968 0.082693 0.053304
v 0.012169 -0.000000 0.038240
v 0.038942 -0.000000 0.016482
v 0.067591 0.144537 0.092761
v 0.110276 0.191110 0.138448
v 0.116969 0.191110 0.133008
v 0.156891 0.202387 0.188970
v 0.045267 0.078310 -0.096414
v 0.021805 0.044803 -0.060844
v 0.044736 0.044803 -0.048856
v 0.040277 -0.000000 -0.031018
v 0.009703 -0.000000 -0.047002
v 0.060554 0.078310 -0.088423
v 0.079273 0.103543 -0.133537
v 0.071630 0.103543 -0.137533
v 0.100244 0.109653 -0.182958
v 0.112745 0.078310 0.028588
v 0.074449 0.044803 0.009903
v 0.065514 0.044803 0.034186
v 0.047251 -0.000000 0.032062
v 0.059163 -0.000000 -0.000316
v 0.106788 0.078310 0.044777
v 0.153938 0.103543 0.057530
v 0.156916 0.103543 0.049435
v 0.205648 0.109653 0.071960
v -0.106571 0.078310 -0.031173
v -0.065633 0.044803 -0.019350
v -0.061006 0.044803 -0.044808
v -0.042649 -0.000000 -0.045855
v -0.048818 -0.000000 -0.011911
v -0.103487 0.078310 -0.048145
v -0.152126 0.103543 -0.052601
v -0.153668 0.103543 -0.044115
v -0.205548 0.109653 -0.057926
v -0.021166 -0.000000 0.044848
v -0.014916 0.093969 0.079050
v 0.022584 0.093969 0.079050
v 0.016334 0.177836 0.133514
v -0.008666 0.177836 0.133514
v -0.002416 0.247302 0.205448
v 0.010084 0.247302 0.205448
v 0.003834 0.279859 0.300000
v 0.028834 -0.000000 0.044848
vn 0.8737 0.3420 -0.3459
vn 0.8321 0.4462 -0.3294
vn 0.8321 0.4462 -0.3295
vn 0.7798 0.5446 -0.3087
vn 0.7174 0.6361 -0.2841
vn 0.7174 0.6361 -0.2840
vn 0.6459 0.7193 -0.2557
vn 0.4858 0.8526 -0.1923
vn 0.3027 0.9455 -0.1199
vn -0.8235 0.3420 0.4526
vn -0.7843 0.4462 0.4310
vn -0.7350 0.5446 0.4039
vn -0.6762 0.6361 0.3716
vn -0.6088 0.7193 0.3346
vn -0.4579 0.8526 0.2516
vn -0.6088 0.7193 0.3345
vn -0.2853 0.9455 0.1568
vn 0.5046 0.6601 -0.5565
vn 0.5909 0.4757 -0.6516
vn 0.6473 0.2670 -0.7139
vn 0.5909 0.4756 -0.6517
vn 0.4557 0.7347 -0.5026
vn 0.4019 0.8013 -0.4432
vn 0.2629 0.9202 -0.2899
vn 0.2629 0.9202 -0.2900
vn 0.1089 0.9868 -0.1202
vn 0.1176 0.3420 0.9323
vn 0.1120 0.4462 0.8879
vn 0.1050 0.5446 0.8321
vn 0.0966 0.6361 0.7656
vn 0.0870 0.7193 0.6892
vn 0.0654 0.8526 0.5184
vn 0.0869 0.7193 0.6892
vn 0.0407 0.9455 0.3230
vn 0.5397 0.6601 0.5225
vn 0.6320 0.4757 0.6118
vn 0.6924 0.2670 0.6703
vn 0.6320 0.4756 0.6119
vn 0.6924 0.2671 0.6703
vn 0.4874 0.7347 0.4719
vn 0.4298 0.8013 0.4161
vn 0.2812 0.9202 0.2722
vn 0.2812 0.9202 0.2723
vn 0.4298 0.8013 0.4162
vn 0.1165 0.9868 0.1128
vn 0.2947 0.5211 -0.8010
vn 0.3233 0.3516 -0.8786
vn 0.3391 0.1891 -0.9216
vn 0.2759 0.6012 -0.7500
vn 0.2528 0.6812 -0.6871
vn 0.1803 0.8529 -0.4900
vn 0.1803 0.8528 -0.4900
vn 0.0795 0.9731 -0.2161
vn -0.2896 0.6601 0.6931
vn -0.3391 0.4757 0.8117
vn -0.3715 0.2671 0.8892
vn -0.3391 0.4756 0.8117
vn -0.3715 0.2670 0.8892
vn -0.2895 0.6601 0.6931
vn -0.2615 0.7347 0.6260
vn -0.2306 0.8013 0.5521
vn -0.1509 0.9202 0.3611
vn -0.0625 0.9868 0.1497
vn -0.4737 0.6601 -0.5829
vn -0.5548 0.4757 -0.6826
vn -0.6078 0.2671 -0.7479
vn -0.5548 0.4756 -0.6827
vn -0.4278 0.7347 -0.5265
vn -0.4279 0.7347 -0.5265
vn -0.3773 0.8013 -0.4643
vn -0.2468 0.9202 -0.3037
vn -0.3774 0.8013 -0.4643
vn -0.1023 0.9868 -0.1259
vn -0.3954 0.5211 0.7564
vn -0.4337 0.3516 0.8296
vn -0.4549 0.1890 0.8702
vn -0.3955 0.5211 0.7564
vn -0.3702 0.6012 0.7082
vn -0.3392 0.6812 0.6488
vn -0.2419 0.8529 0.4627
vn -0.2419 0.8528 0.4627
vn -0.1067 0.9731 0.2040
vn -0.8010 0.5211 -0.2947
vn -0.8786 0.3516 -0.3233
vn -0.8786 0.3516 -0.3232
vn -0.9216 0.1891 -0.3391
vn -0.7500 0.6012 -0.2759
vn -0.6871 0.6812 -0.2528
vn -0.4900 0.8529 -0.1803
vn -0.2161 0.9731 -0.0795
vn 0.8398 0.5211 0.1526
vn 0.9211 0.3516 0.1674
vn 0.9211 0.3516 0.1673
vn 0.9661 0.1890 0.1756
vn 0.9661 0.1891 0.1756
vn 0.7862 0.6012 0.1429
vn 0.7203 0.6812 0.1309
vn 0.5137 0.8529 0.0933
vn 0.5137 0.8529 0.0934
vn 0.2265 0.9731 0.0412
vn -0.0000 0.3420 -0.9397
vn -0.0000 0.4462 -0.8949
vn -0.0000 0.5446 -0.8387
vn -0.0000 0.6361 -0.7716
vn -0.0000 0.7193 -0.6947
vn -0.0000 0.8526 -0.5225
vn -0.0000 0.9455 -0.3256
vt -0.000000 -3.435710
vt -0.246063 0.501298
vt -1.722440 0.501298
vt -1.476380 2.302020
vt -1.722440 -1.634980
vt -0.246063 -1.634980
vt -0.492126 2.302020
vt -1.476380 0.148646
vt -0.492126 0.148646
vt -0.738189 4.085650
vt -1.230310 4.085650
vt -1.230310 -0.349875
vt -0.738189 -0.349875
vt -0.984252 3.587130
vt -1.968500 -3.435710
vt -1.018700 0.870291
vt -1.188480 -2.371100
vt -0.169783 -2.371100
vt -0.000000 -2.189450
vt -0.169783 1.188870
vt -1.188480 1.188870
vt -1.358270 -2.189450
vt -0.339567 0.870291
vt -1.018700 -0.727518
vt -0.339567 -0.727518
vt -0.509350 2.337210
vt -0.848917 2.337210
vt -0.848917 -1.444830
vt -0.509350 -1.444830
vt -0.679134 1.292450
s 1
usemtl _4
f 1/1/1 2/2/2 3/3/3
f 4/4/4 3/5/2 2/6/3
f 2/6/4 5/7/5 4/4/6
f 4/8/6 5/9/5 6/10/7
f 6/10/8 7/11/8 4/8/7
f 7/12/8 6/13/8 8/14/9
f 3/3/1 9/15/1 1/1/1
f 10/1/10 11/2/11 12/3/11
f 13/4/12 12/5/11 11/6/11
f 11/6/12 14/7/13 13/4/13
f 13/8/13 14/9/13 15/10/14
f 15/10/15 16/11/15 13/8/16
f 16/12/15 15/13/15 17/14/17
f 12/3/10 18/15/10 10/1/10
f 19/16/18 20/17/19 21/18/19
f 22/19/20 21/20/21 20/21/21
f 20/21/20 23/22/20 22/19/20
f 21/18/18 24/23/22 19/16/22
f 19/24/22 24/25/22 25/26/23
f 25/26/24 26/27/25 19/24/23
f 26/28/25 25/29/24 27/30/26
f 28/1/27 29/2/28 30/3/28
f 31/4/29 30/5/28 29/6/28
f 29/6/29 32/7/30 31/4/30
f 31/8/30 32/9/30 33/10/31
f 33/10/32 34/11/32 31/8/33
f 34/12/32 33/13/32 35/14/34
f 30/3/27 36/15/27 28/1/27
f 37/16/35 38/17/36 39/18/36
f 40/19/37 39/20/38 38/21/38
f 38/21/39 41/22/39 40/19/39
f 39/18/35 42/23/40 37/16/40
f 37/24/40 42/25/40 43/26/41
f 43/26/42 44/27/43 37/24/44
f 44/28/43 43/29/42 45/30/45
f 46/16/46 47/17/47 48/18/47
f 49/19/48 48/20/47 47/21/47
f 47/21/48 50/22/48 49/19/48
f 48/18/46 51/23/49 46/16/49
f 46/24/49 51/25/49 52/26/50
f 52/26/51 53/27/52 46/24/50
f 53/28/52 52/29/51 54/30/53
f 55/16/54 56/17/55 57/18/55
f 58/19/56 57/20/57 56/21/57
f 56/21/58 59/22/58 58/19/58
f 57/18/59 60/23/60 55/16/60
f 55/24/60 60/25/60 61/26/61
f 61/26/62 62/27/62 55/24/61
f 62/28/62 61/29/62 63/30/63
f 64/16/64 65/17/65 66/18/65
f 67/19/66 66/20/67 65/21/67
f 65/21/66 68/22/66 67/19/66
f 66/18/64 69/23/68 64/16/69
f 64/24/69 69/25/68 70/26/70
f 70/26/71 71/27/71 64/24/72
f 71/28/71 70/29/71 72/30/73
f 73/16/74 74/17/75 75/18/75
f 76/19/76 75/20/75 74/21/75
f 74/21/76 77/22/76 76/19/76
f 75/18/77 78/23/78 73/16/78
f 73/24/78 78/25/78 79/26/79
f 79/26/80 80/27/81 73/24/79
f 80/28/81 79/29/80 81/30/82
f 82/16/83 83/17/84 84/18/85
f 85/19/86 84/20/84 83/21/84
f 83/21/86 86/22/86 85/19/86
f 84/18/83 87/23/87 82/16/87
f 82/24/87 87/25/87 88/26/88
f 88/26/89 89/27/89 82/24/88
f 89/28/89 88/29/89 90/30/90
f 91/16/91 92/17/92 93/18/93
f 94/19/94 93/20/92 92/21/92
f 92/21/95 95/22/95 94/19/95
f 93/18/91 96/23/96 91/16/96
f 91/24/96 96/25/96 97/26/97
f 97/26/98 98/27/99 91/24/97
f 98/28/99 97/29/98 99/30/100
f 100/1/101 101/2/102 102/3/102
f 103/4/103 102/5/102 101/6/102
f 101/6/103 104/7/104 103/4/104
f 103/8/104 104/9/104 105/10/105
f 105/10/106 106/11/106 103/8/105
f 106/12/106 105/13/106 107/14/107
f 102/3/101 108/15/101 100/1/101
