# Blender 4.3.0
# www.blender.org
mtllib grass_01.mtl
o Grass_007
v 0.056590 -0.006842 0.035530
v 0.067747 -0.003071 -0.006106
v 0.005276 -0.006842 0.021781
v 0.016432 -0.003071 -0.019856
v 0.011118 0.533310 0.102606
v 0.015875 0.375796 0.088292
v 0.021832 0.377809 0.066060
v -0.005567 0.377809 0.058719
v -0.011524 0.375796 0.080950
v 0.036328 0.168124 0.067942
v 0.044656 0.170939 0.036862
v 0.006351 0.170939 0.026598
v -0.001977 0.168124 0.057678
v 0.063141 0.000059 0.088677
v 0.098712 -0.006201 0.091825
v 0.066888 -0.000945 0.044335
v 0.102459 -0.007205 0.047482
v 0.120425 0.453253 0.060915
v 0.098344 0.322537 0.062758
v 0.117337 0.319195 0.064439
v 0.119338 0.318659 0.040762
v 0.100345 0.322001 0.039082
v 0.072403 0.149348 0.076673
v 0.098956 0.144675 0.079023
v 0.101753 0.143925 0.045923
v 0.075200 0.148598 0.043573
v -0.090989 -0.004354 -0.101552
v -0.124869 -0.004200 -0.087055
v -0.073189 -0.003550 -0.059962
v -0.107070 -0.003396 -0.045465
v -0.060699 0.459836 -0.098881
v -0.061567 0.325091 -0.096728
v -0.079658 0.325173 -0.088988
v -0.070154 0.325602 -0.066781
v -0.052064 0.325520 -0.074522
v -0.071148 0.146876 -0.102606
v -0.096439 0.146991 -0.091784
v -0.083153 0.147591 -0.060739
v -0.057862 0.147477 -0.071560
v -0.065486 -0.003059 0.053616
v -0.087702 -0.006873 0.063261
v -0.053918 -0.000476 0.081285
v -0.076133 -0.004289 0.090930
v -0.113584 0.459648 0.046901
v -0.093065 0.326565 0.056145
v -0.102450 0.324954 0.060219
v -0.097563 0.326045 0.071908
v -0.088178 0.327656 0.067834
v -0.072003 0.149342 0.051841
v -0.086611 0.146835 0.058183
v -0.079004 0.148533 0.076378
v -0.064395 0.151041 0.070036
v 0.105249 -0.003215 -0.065084
v 0.116117 -0.005978 -0.086887
v 0.078437 -0.001523 -0.078663
v 0.089306 -0.004286 -0.100466
v 0.124869 0.461402 -0.079284
v 0.109407 0.327348 -0.076463
v 0.113999 0.326181 -0.085674
v 0.102672 0.326896 -0.091410
v 0.098081 0.328063 -0.082200
v 0.104325 0.149330 -0.064072
v 0.111471 0.147513 -0.078409
v 0.093841 0.148626 -0.087339
v 0.086694 0.150442 -0.073002
vn 0.9626 0.0626 0.2636
vn 0.9623 0.0659 0.2638
vn 0.2497 0.2632 -0.9319
vn 0.2527 0.2153 -0.9433
vn -0.9661 0.0128 -0.2577
vn -0.9659 -0.0001 -0.2588
vn -0.2533 -0.2045 0.9455
vn -0.2554 -0.1620 0.9532
vn 0.9643 0.0396 0.2620
vn 0.9658 0.0056 0.2593
vn 0.9644 0.0369 0.2618
vn 0.2537 0.1984 -0.9467
vn 0.2514 0.2378 -0.9382
vn 0.2536 0.1995 -0.9465
vn -0.9647 0.0791 -0.2513
vn -0.9555 0.1704 -0.2406
vn -0.9651 0.0710 -0.2522
vn -0.2573 -0.1075 0.9603
vn -0.2576 -0.0952 0.9615
vn -0.2573 -0.1079 0.9603
vn 0.9624 0.0655 0.2638
vn 0.9623 0.0662 0.2638
vn 0.2529 0.2132 -0.9437
vn -0.9659 -0.0019 -0.2590
vn -0.9659 -0.0004 -0.2589
vn -0.2553 -0.1638 0.9529
vn -0.0731 0.0844 0.9937
vn -0.0725 0.0876 0.9935
vn 0.9964 0.0055 0.0841
vn 0.9954 -0.0438 0.0851
vn 0.0864 -0.0099 -0.9962
vn 0.0842 -0.0227 -0.9962
vn -0.9948 0.0549 -0.0853
vn -0.9915 0.0980 -0.0860
vn -0.0772 0.0617 0.9951
vn -0.0832 0.0281 0.9961
vn -0.0777 0.0590 0.9952
vn 0.9945 -0.0610 0.0854
vn 0.9962 -0.0207 0.0847
vn 0.9945 -0.0599 0.0854
vn 0.0977 0.0557 -0.9936
vn 0.1127 0.1462 -0.9828
vn 0.0964 0.0477 -0.9942
vn -0.9845 0.1525 -0.0867
vn -0.9825 0.1647 -0.0868
vn -0.9846 0.1521 -0.0866
vn -0.0726 0.0873 0.9935
vn -0.0724 0.0879 0.9935
vn 0.9953 -0.0460 0.0852
vn 0.0839 -0.0244 -0.9962
vn 0.0841 -0.0228 -0.9962
vn -0.9917 0.0961 -0.0860
vn -0.9915 0.0979 -0.0860
vn -0.3928 0.0451 -0.9185
vn -0.3927 0.0483 -0.9184
vn -0.9052 0.1822 0.3839
vn -0.9120 0.1335 0.3877
vn 0.3933 0.0306 0.9189
vn 0.3934 0.0177 0.9192
vn 0.9133 -0.1225 -0.3885
vn 0.9170 -0.0795 -0.3909
vn -0.3932 0.0220 -0.9192
vn -0.3934 -0.0122 -0.9193
vn -0.3932 0.0192 -0.9192
vn -0.9139 0.1164 0.3889
vn -0.9091 0.1564 0.3861
vn -0.9138 0.1175 0.3888
vn 0.3919 0.0972 0.9149
vn 0.3870 0.1886 0.9026
vn 0.3922 0.0890 0.9156
vn 0.9192 -0.0246 -0.3929
vn 0.9194 -0.0122 -0.3932
vn 0.9192 -0.0250 -0.3929
vn -0.3927 0.0480 -0.9184
vn -0.3927 0.0487 -0.9184
vn -0.9123 0.1314 0.3879
vn 0.3934 0.0159 0.9192
vn 0.3934 0.0174 0.9192
vn 0.9169 -0.0814 -0.3908
vn -0.3941 -0.0276 -0.9187
vn -0.3943 -0.0260 -0.9186
vn -0.9231 0.0192 0.3841
vn -0.9211 -0.0314 0.3881
vn 0.3827 0.0947 0.9190
vn 0.3853 0.0804 0.9193
vn 0.9209 0.0349 -0.3883
vn 0.9173 0.0766 -0.3907
vn -0.3870 -0.0704 -0.9194
vn -0.3776 -0.1220 -0.9179
vn -0.3863 -0.0746 -0.9193
vn -0.9187 -0.0627 0.3900
vn -0.9207 -0.0377 0.3885
vn -0.9188 -0.0620 0.3899
vn 0.3738 0.1407 0.9168
vn 0.3581 0.2131 0.9091
vn 0.3751 0.1343 0.9172
vn 0.9125 0.1157 -0.3923
vn 0.9128 0.1135 -0.3923
vn 0.9125 0.1158 -0.3923
vn -0.3943 -0.0262 -0.9186
vn -0.3943 -0.0259 -0.9186
vn -0.9210 -0.0336 0.3882
vn 0.3856 0.0784 0.9193
vn 0.3853 0.0801 0.9193
vn 0.9175 0.0749 -0.3906
vn 0.9173 0.0767 -0.3907
vn 0.8951 0.0025 0.4459
vn 0.8952 0.0040 0.4457
vn 0.4541 0.0628 -0.8887
vn 0.4524 0.0121 -0.8917
vn -0.8897 0.0652 -0.4518
vn -0.8912 0.0508 -0.4507
vn -0.4522 -0.0087 0.8919
vn -0.4499 0.0333 0.8925
vn 0.8922 -0.0407 0.4499
vn 0.8864 -0.0927 0.4536
vn 0.8918 -0.0449 0.4502
vn 0.4508 -0.0193 -0.8924
vn 0.4521 0.0058 -0.8919
vn 0.4508 -0.0186 -0.8924
vn -0.8837 0.1116 -0.4546
vn -0.8700 0.1848 -0.4571
vn -0.8846 0.1051 -0.4543
vn -0.4470 0.0726 0.8916
vn -0.4472 0.0703 0.8917
vn -0.4470 0.0727 0.8916
vn 0.8952 0.0038 0.4457
vn 0.8952 0.0041 0.4457
vn 0.4523 0.0099 -0.8918
vn -0.8914 0.0488 -0.4505
vn -0.8913 0.0505 -0.4507
vn -0.4500 0.0315 0.8925
vn -0.4499 0.0334 0.8925
vn -0.2534 -0.2045 0.9455
vt 0.024685 0.020836
vt 0.071220 0.020184
vt 0.038115 0.211544
vt 0.126555 0.012727
vt 0.072661 0.207950
vt 0.171000 0.015998
vt 0.116021 0.207860
vt 0.224298 0.032578
vt 0.153259 0.210931
vt 0.087745 0.361616
vt 0.118803 0.548181
vt 0.065532 0.370324
vt 0.115739 0.362138
vt 0.136934 0.367241
vt 0.165929 0.369013
vt 0.195898 0.216453
vt 0.226326 0.016556
vt 0.265316 0.016010
vt 0.237578 0.176345
vt 0.311680 0.009762
vt 0.266523 0.173334
vt 0.348919 0.012503
vt 0.302853 0.173258
vt 0.393576 0.026394
vt 0.334054 0.175831
vt 0.279162 0.302086
vt 0.305185 0.458404
vt 0.260550 0.309382
vt 0.302617 0.302523
vt 0.320376 0.306799
vt 0.344670 0.308284
vt 0.369780 0.180458
vt 0.540648 0.019634
vt 0.580281 0.019078
vt 0.552086 0.182055
vt 0.627408 0.012728
vt 0.581508 0.178994
vt 0.665261 0.015513
vt 0.618437 0.178918
vt 0.710655 0.029634
vt 0.650152 0.181533
vt 0.594355 0.309869
vt 0.620807 0.468762
vt 0.575436 0.317285
vt 0.618197 0.310313
vt 0.636248 0.314659
vt 0.660943 0.316168
vt 0.686467 0.186237
vt 0.395348 0.015065
vt 0.425777 0.014638
vt 0.404130 0.139767
vt 0.461960 0.009762
vt 0.426719 0.137417
vt 0.491023 0.011901
vt 0.455072 0.137358
vt 0.525874 0.022742
vt 0.479422 0.139366
vt 0.436583 0.237898
vt 0.456891 0.359892
vt 0.422058 0.243593
vt 0.454888 0.238240
vt 0.468747 0.241576
vt 0.487707 0.242735
vt 0.507303 0.142978
vt 0.726894 0.015838
vt 0.757323 0.015411
vt 0.735676 0.140540
vt 0.793506 0.010535
vt 0.758265 0.138190
vt 0.822569 0.012674
vt 0.786618 0.138131
vt 0.857420 0.023515
vt 0.810968 0.140139
vt 0.768129 0.238671
vt 0.788438 0.360665
vt 0.753604 0.244366
vt 0.786434 0.239013
vt 0.800293 0.242349
vt 0.819253 0.243508
vt 0.838850 0.143751
s 1
usemtl Material_#25
f 1/1/1 2/2/1 10/3/2
f 2/2/3 4/4/3 11/5/4
f 4/4/5 3/6/5 12/7/6
f 3/6/7 1/8/7 13/9/8
f 7/10/9 5/11/10 6/12/11
f 8/13/12 5/11/13 7/10/14
f 9/14/15 5/11/16 8/13/17
f 6/15/18 5/11/19 9/14/20
f 11/5/21 7/10/9 10/3/22
f 12/7/23 8/13/12 11/5/4
f 13/9/24 9/14/15 12/7/25
f 10/16/26 6/15/18 13/9/8
f 14/17/27 15/18/27 23/19/28
f 15/18/29 17/20/29 24/21/30
f 17/20/31 16/22/31 25/23/32
f 16/22/33 14/24/33 26/25/34
f 20/26/35 18/27/36 19/28/37
f 21/29/38 18/27/39 20/26/40
f 22/30/41 18/27/42 21/29/43
f 19/31/44 18/27/45 22/30/46
f 24/21/47 20/26/35 23/19/48
f 25/23/49 21/29/38 24/21/30
f 26/25/50 22/30/41 25/23/51
f 23/32/52 19/31/44 26/25/53
f 27/33/54 28/34/54 36/35/55
f 28/34/56 30/36/56 37/37/57
f 30/36/58 29/38/58 38/39/59
f 29/38/60 27/40/60 39/41/61
f 33/42/62 31/43/63 32/44/64
f 34/45/65 31/43/66 33/42/67
f 35/46/68 31/43/69 34/45/70
f 32/47/71 31/43/72 35/46/73
f 37/37/74 33/42/62 36/35/75
f 38/39/76 34/45/65 37/37/57
f 39/41/77 35/46/68 38/39/78
f 36/48/79 32/47/71 39/41/61
f 40/49/80 41/50/80 49/51/81
f 41/50/82 43/52/82 50/53/83
f 43/52/84 42/54/84 51/55/85
f 42/54/86 40/56/86 52/57/87
f 46/58/88 44/59/89 45/60/90
f 47/61/91 44/59/92 46/58/93
f 48/62/94 44/59/95 47/61/96
f 45/63/97 44/59/98 48/62/99
f 50/53/100 46/58/88 49/51/101
f 51/55/102 47/61/91 50/53/83
f 52/57/103 48/62/94 51/55/104
f 49/64/105 45/63/97 52/57/106
f 53/65/107 54/66/107 62/67/108
f 54/66/109 56/68/109 63/69/110
f 56/68/111 55/70/111 64/71/112
f 55/70/113 53/72/113 65/73/114
f 59/74/115 57/75/116 58/76/117
f 60/77/118 57/75/119 59/74/120
f 61/78/121 57/75/122 60/77/123
f 58/79/124 57/75/125 61/78/126
f 63/69/127 59/74/115 62/67/128
f 64/71/129 60/77/118 63/69/110
f 65/73/130 61/78/121 64/71/131
f 62/80/132 58/79/124 65/73/133
f 2/2/1 11/5/21 10/3/22
f 4/4/3 12/7/23 11/5/4
f 3/6/5 13/9/24 12/7/25
f 1/8/134 10/16/26 13/9/8
f 7/10/9 6/12/11 10/3/22
f 8/13/12 7/10/14 11/5/4
f 9/14/15 8/13/17 12/7/25
f 6/15/18 9/14/20 13/9/8
f 15/18/27 24/21/47 23/19/48
f 17/20/29 25/23/49 24/21/30
f 16/22/31 26/25/50 25/23/51
f 14/24/33 23/32/52 26/25/53
f 20/26/35 19/28/37 23/19/48
f 21/29/38 20/26/40 24/21/30
f 22/30/41 21/29/43 25/23/51
f 19/31/44 22/30/46 26/25/53
f 28/34/54 37/37/74 36/35/75
f 30/36/56 38/39/76 37/37/57
f 29/38/58 39/41/77 38/39/78
f 27/40/60 36/48/79 39/41/61
f 33/42/62 32/44/64 36/35/75
f 34/45/65 33/42/67 37/37/57
f 35/46/68 34/45/70 38/39/78
f 32/47/71 35/46/73 39/41/61
f 41/50/80 50/53/100 49/51/101
f 43/52/82 51/55/102 50/53/83
f 42/54/84 52/57/103 51/55/104
f 40/56/86 49/64/105 52/57/106
f 46/58/88 45/60/90 49/51/101
f 47/61/91 46/58/93 50/53/83
f 48/62/94 47/61/96 51/55/104
f 45/63/97 48/62/99 52/57/106
f 54/66/107 63/69/127 62/67/128
f 56/68/109 64/71/129 63/69/110
f 55/70/111 65/73/130 64/71/131
f 53/72/113 62/80/132 65/73/133
f 59/74/115 58/76/117 62/67/128
f 60/77/118 59/74/120 63/69/110
f 61/78/121 60/77/123 64/71/131
f 58/79/124 61/78/126 65/73/133
