# Blender 4.3.0
# www.blender.org
mtllib ground_03.mtl
o Grass_003
v -0.021577 0.007673 0.023224
v 0.013994 0.001413 0.026372
v -0.017830 0.006669 -0.021119
v 0.017741 0.000409 -0.017971
v 0.035707 0.460867 -0.004538
v 0.013626 0.330151 -0.002696
v 0.032619 0.326809 -0.001015
v 0.034620 0.326273 -0.024691
v 0.015627 0.329615 -0.026372
v -0.012315 0.156962 0.011220
v 0.014238 0.152289 0.013570
v 0.017035 0.151539 -0.019531
v -0.009518 0.156212 -0.021880
vn -0.0731 0.0844 0.9937
vn -0.0725 0.0876 0.9935
vn 0.9964 0.0055 0.0841
vn 0.9954 -0.0438 0.0851
vn 0.0864 -0.0099 -0.9962
vn 0.0842 -0.0227 -0.9962
vn -0.9948 0.0549 -0.0853
vn -0.9915 0.0980 -0.0860
vn -0.0772 0.0617 0.9951
vn -0.0832 0.0281 0.9961
vn -0.0777 0.0590 0.9952
vn 0.9945 -0.0610 0.0854
vn 0.9962 -0.0207 0.0847
vn 0.9945 -0.0599 0.0854
vn 0.0977 0.0557 -0.9936
vn 0.1127 0.1462 -0.9828
vn 0.0964 0.0477 -0.9942
vn -0.9845 0.1525 -0.0867
vn -0.9825 0.1647 -0.0868
vn -0.9846 0.1521 -0.0866
vn -0.0726 0.0873 0.9935
vn -0.0724 0.0879 0.9935
vn 0.9953 -0.0460 0.0852
vn 0.0839 -0.0244 -0.9962
vn 0.0841 -0.0228 -0.9962
vn -0.9917 0.0961 -0.0860
vn -0.9915 0.0979 -0.0860
vt 0.025393 0.027965
vt 0.064384 0.027419
vt 0.036645 0.187754
vt 0.110747 0.021171
vt 0.065591 0.184743
vt 0.147986 0.023911
vt 0.101921 0.184667
vt 0.192644 0.037803
vt 0.133122 0.187240
vt 0.078229 0.313495
vt 0.104252 0.469813
vt 0.059618 0.320792
vt 0.101685 0.313932
vt 0.119443 0.318208
vt 0.143738 0.319693
vt 0.168848 0.191868
s 1
usemtl Material_#25
f 1/1/1 2/2/1 10/3/2
f 2/2/3 4/4/3 11/5/4
f 4/4/5 3/6/5 12/7/6
f 3/6/7 1/8/7 13/9/8
f 7/10/9 5/11/10 6/12/11
f 8/13/12 5/11/13 7/10/14
f 9/14/15 5/11/16 8/13/17
f 6/15/18 5/11/19 9/14/20
f 11/5/21 7/10/9 10/3/22
f 12/7/23 8/13/12 11/5/4
f 13/9/24 9/14/15 12/7/25
f 10/16/26 6/15/18 13/9/27
f 2/2/1 11/5/21 10/3/22
f 4/4/3 12/7/23 11/5/4
f 3/6/5 13/9/24 12/7/25
f 1/8/7 10/16/26 13/9/27
f 7/10/9 6/12/11 10/3/22
f 8/13/12 7/10/14 11/5/4
f 9/14/15 8/13/17 12/7/25
f 6/15/18 9/14/20 13/9/27
