# Blender 4.3.0
# www.blender.org
mtllib ground_01.mtl
o Grass_001
v 0.015639 -0.006494 -0.010515
v -0.006057 -0.013674 -0.024209
v -0.002875 -0.000836 0.015851
v -0.024571 -0.008016 0.002157
v -0.024076 0.157134 -0.038545
v -0.001916 0.123768 -0.027840
v -0.013500 0.119934 -0.035151
v -0.023386 0.122956 -0.021074
v -0.011801 0.126789 -0.013762
v 0.007978 0.091333 -0.025240
v -0.008708 0.085811 -0.035772
v -0.022948 0.090163 -0.015494
v -0.006261 0.095685 -0.004961
vn 0.5512 -0.0818 -0.8304
vn 0.5353 -0.0067 -0.8446
vn 0.5324 0.0058 -0.8465
vn -0.8240 -0.0870 -0.5599
vn -0.8242 -0.0952 -0.5583
vn -0.5635 0.1552 0.8114
vn -0.5620 0.1448 0.8144
vn 0.8241 0.1469 0.5471
vn 0.8200 0.2196 0.5286
vn 0.5134 0.0785 -0.8546
vn 0.5161 0.0688 -0.8538
vn 0.5132 0.0793 -0.8546
vn -0.8223 -0.1877 -0.5372
vn -0.8132 -0.2778 -0.5114
vn -0.8229 -0.1783 -0.5396
vn -0.5730 0.2326 0.7859
vn -0.5803 0.3614 0.7299
vn -0.5740 0.2428 0.7820
vn 0.7818 0.4228 0.4583
vn 0.7131 0.5934 0.3734
vn 0.7767 0.4398 0.4510
vn -0.8242 -0.0965 -0.5580
vn -0.8242 -0.0954 -0.5583
vn -0.5617 0.1430 0.8149
vn -0.5619 0.1446 0.8144
vn 0.8208 0.2094 0.5314
vn 0.8200 0.2196 0.5287
vt 0.033714 0.026887
vt 0.069796 0.118516
vt 0.050833 0.125708
vt 0.059382 0.018766
vt 0.092548 0.018086
vt 0.119377 0.022738
vt 0.094615 0.117982
vt 0.152417 0.024062
vt 0.114759 0.121121
vt 0.078571 0.152253
vt 0.094295 0.188921
vt 0.065341 0.157788
vt 0.095661 0.150915
vt 0.108805 0.151740
vt 0.124438 0.157184
vt 0.139754 0.123818
s 1
usemtl Material_#25
f 1/1/1 11/2/2 10/3/3
f 2/4/4 4/5/4 11/2/5
f 4/5/6 3/6/6 12/7/7
f 3/6/8 1/8/8 13/9/9
f 7/10/10 5/11/11 6/12/12
f 8/13/13 5/11/14 7/10/15
f 9/14/16 5/11/17 8/13/18
f 6/15/19 5/11/20 9/14/21
f 11/2/2 7/10/10 10/3/3
f 12/7/22 8/13/13 11/2/23
f 13/9/24 8/13/18 12/7/25
f 10/16/26 6/15/19 13/9/27
f 1/1/1 2/4/1 11/2/2
f 4/5/4 12/7/22 11/2/23
f 3/6/6 13/9/24 12/7/25
f 1/8/8 10/16/26 13/9/27
f 7/10/10 6/12/12 10/3/3
f 8/13/13 7/10/15 11/2/23
f 13/9/24 9/14/16 8/13/18
f 6/15/19 9/14/21 13/9/27
