# Blender 4.3.0
# www.blender.org
mtllib ground_05.mtl
o Grass_005
v -0.063548 -0.012188 0.081415
v -0.021752 -0.000989 0.081415
v -0.063548 -0.012188 0.028290
v -0.021752 -0.000989 0.028290
v -0.221119 0.440554 0.054853
v -0.134831 0.295825 0.069035
v -0.112515 0.301804 0.069035
v -0.112515 0.301804 0.040670
v -0.134831 0.295825 0.040670
v -0.102810 0.158554 0.110109
v -0.071611 0.166914 0.110109
v -0.071611 0.166914 0.070453
v -0.102810 0.158554 0.070453
v 0.033224 0.001686 0.032393
v 0.016341 -0.000889 0.056505
v 0.062941 0.001686 0.053201
v 0.046058 -0.000889 0.077313
v 0.047389 0.296052 0.043787
v 0.046624 0.214449 0.027995
v 0.037609 0.213074 0.040870
v 0.053476 0.213074 0.051980
v 0.062491 0.214449 0.039105
v 0.062521 0.107090 0.046080
v 0.049536 0.105109 0.064625
v 0.072391 0.105109 0.080628
v 0.085377 0.107090 0.062084
v -0.035849 0.005011 0.017427
v 0.004812 0.005011 0.032226
v -0.017955 -0.004214 -0.031736
v 0.022706 -0.004214 -0.016937
v -0.032570 0.464315 -0.096269
v 0.011747 0.299067 -0.083859
v 0.033457 0.299067 -0.075958
v 0.043011 0.294142 -0.102207
v 0.021301 0.294142 -0.110109
v -0.006678 0.163284 -0.046682
v 0.023674 0.163284 -0.035635
v 0.037031 0.156398 -0.072333
v 0.006679 0.156398 -0.083381
vn 0.0419 -0.1562 0.9868
vn -0.0144 0.0538 0.9984
vn 0.9586 0.2847 -0.0000
vn 0.9578 0.2873 -0.0000
vn -0.0606 0.2261 -0.9722
vn -0.0047 0.0176 -0.9998
vn -0.9746 -0.2241 -0.0000
vn -0.9742 -0.2255 -0.0000
vn -0.0516 0.1927 0.9799
vn -0.0226 0.0842 0.9962
vn -0.0460 0.1715 0.9841
vn 0.8834 0.4686 -0.0000
vn 0.7875 0.6164 -0.0000
vn 0.8965 0.4430 -0.0000
vn 0.0129 -0.0483 -0.9987
vn -0.0226 0.0842 -0.9962
vn 0.0217 -0.0808 -0.9965
vn -0.9337 -0.3582 -0.0000
vn -0.8589 -0.5121 -0.0000
vn -0.9248 -0.3804 -0.0000
vn -0.0146 0.0545 0.9984
vn -0.0144 0.0539 0.9984
vn 0.9578 0.2874 -0.0000
vn 0.9577 0.2876 -0.0000
vn -0.0049 0.0181 -0.9998
vn -0.9742 -0.2256 -0.0000
vn -0.9742 -0.2258 -0.0000
vn -0.7981 0.2904 -0.5279
vn -0.8206 0.0723 -0.5669
vn -0.8199 0.0171 -0.5723
vn -0.5697 0.1161 0.8136
vn 0.8102 -0.2183 0.5440
vn 0.8190 0.0024 0.5737
vn 0.5728 -0.0530 -0.8180
vn -0.8140 -0.0663 -0.5771
vn -0.8194 0.1163 -0.5613
vn -0.8160 -0.0453 -0.5762
vn -0.5716 0.0822 0.8164
vn -0.5731 0.0388 0.8185
vn -0.5719 0.0762 0.8168
vn 0.7924 0.2000 0.5762
vn 0.8077 0.1163 0.5780
vn 0.7901 0.2105 0.5757
vn 0.5728 0.0530 -0.8180
vn 0.5670 0.1514 -0.8097
vn 0.5732 0.0369 -0.8186
vn 0.8149 0.0576 0.5767
vn -0.3126 0.4055 0.8590
vn -0.3204 0.3499 0.8803
vn 0.9411 0.0321 0.3365
vn 0.3224 -0.3342 -0.8857
vn 0.3288 -0.2757 -0.9033
vn -0.9373 0.0321 -0.3472
vn -0.3376 0.1607 0.9275
vn -0.3419 -0.0212 0.9395
vn -0.3393 0.1255 0.9323
vn 0.9330 0.1936 0.3033
vn 0.8879 0.3856 0.2508
vn 0.9299 0.2156 0.2980
vn 0.3420 -0.0030 -0.9397
vn 0.3363 0.1816 -0.9241
vn 0.3417 -0.0460 -0.9387
vn -0.9398 -0.1225 -0.3191
vn -0.9203 -0.2682 -0.2847
vn -0.9408 -0.1027 -0.3231
vn -0.3204 0.3498 0.8803
vt 0.017568 0.027364
vt 0.061065 0.026304
vt 0.031956 0.205520
vt 0.112723 0.018790
vt 0.064220 0.201829
vt 0.154309 0.021410
vt 0.104757 0.201311
vt 0.204299 0.036390
vt 0.139618 0.203805
vt 0.079583 0.345392
vt 0.111321 0.519399
vt 0.058945 0.353784
vt 0.105740 0.345537
vt 0.125633 0.350046
vt 0.152771 0.351369
vt 0.179549 0.208572
vt 0.439422 0.037504
vt 0.473632 0.142521
vt 0.451352 0.147281
vt 0.468077 0.029359
vt 0.504314 0.035983
vt 0.534685 0.043626
vt 0.500053 0.143166
vt 0.571676 0.042363
vt 0.520203 0.148964
vt 0.470699 0.255177
vt 0.482081 0.337612
vt 0.455449 0.258034
vt 0.490116 0.254223
vt 0.506169 0.258212
vt 0.524364 0.265467
vt 0.546080 0.153460
vt 0.218951 0.024144
vt 0.262309 0.018790
vt 0.242702 0.197514
vt 0.315700 0.026598
vt 0.274988 0.193120
vt 0.360244 0.028945
vt 0.314443 0.196502
vt 0.413919 0.025391
vt 0.346488 0.198968
vt 0.285033 0.336402
vt 0.305062 0.515872
vt 0.263837 0.342907
vt 0.311361 0.333590
vt 0.331932 0.338618
vt 0.358135 0.345786
vt 0.385970 0.199525
s 1
usemtl Material_#25
f 1/1/1 2/2/1 10/3/2
f 2/2/3 4/4/3 11/5/4
f 4/4/5 3/6/5 12/7/6
f 3/6/7 1/8/7 13/9/8
f 7/10/9 5/11/10 6/12/11
f 8/13/12 5/11/13 7/10/14
f 9/14/15 5/11/16 8/13/17
f 6/15/18 5/11/19 9/14/20
f 11/5/21 7/10/9 10/3/22
f 12/7/23 8/13/12 11/5/24
f 13/9/25 9/14/15 12/7/6
f 10/16/26 6/15/18 13/9/27
f 14/17/28 24/18/29 23/19/30
f 15/20/31 17/21/31 24/18/31
f 17/21/32 16/22/32 25/23/33
f 16/22/34 14/24/34 26/25/34
f 20/26/35 18/27/36 19/28/37
f 21/29/38 18/27/39 20/26/40
f 22/30/41 18/27/42 21/29/43
f 19/31/44 18/27/45 22/30/46
f 24/18/29 20/26/35 23/19/30
f 25/23/31 21/29/38 24/18/31
f 26/25/47 21/29/43 25/23/33
f 23/32/34 19/31/44 26/25/34
f 27/33/48 28/34/48 36/35/49
f 28/34/50 30/36/50 37/37/50
f 30/36/51 29/38/51 38/39/52
f 29/38/53 27/40/53 39/41/53
f 33/42/54 31/43/55 32/44/56
f 34/45/57 31/43/58 33/42/59
f 35/46/60 31/43/61 34/45/62
f 32/47/63 31/43/64 35/46/65
f 37/37/49 33/42/54 36/35/66
f 38/39/50 34/45/57 37/37/50
f 39/41/52 35/46/60 38/39/52
f 36/48/53 32/47/63 39/41/53
f 2/2/1 11/5/21 10/3/22
f 4/4/3 12/7/23 11/5/24
f 3/6/5 13/9/25 12/7/6
f 1/8/7 10/16/26 13/9/27
f 7/10/9 6/12/11 10/3/22
f 8/13/12 7/10/14 11/5/24
f 9/14/15 8/13/17 12/7/6
f 6/15/18 9/14/20 13/9/27
f 14/17/28 15/20/28 24/18/29
f 17/21/31 25/23/31 24/18/31
f 16/22/32 26/25/47 25/23/33
f 14/24/34 23/32/34 26/25/34
f 20/26/35 19/28/37 23/19/30
f 21/29/38 20/26/40 24/18/31
f 26/25/47 22/30/41 21/29/43
f 19/31/44 22/30/46 26/25/34
f 28/34/48 37/37/49 36/35/66
f 30/36/50 38/39/50 37/37/50
f 29/38/51 39/41/52 38/39/52
f 27/40/53 36/48/53 39/41/53
f 33/42/54 32/44/56 36/35/66
f 34/45/57 33/42/59 37/37/50
f 35/46/60 34/45/62 38/39/52
f 32/47/63 35/46/65 39/41/53
