# Blender 4.3.0
# www.blender.org
mtllib ground_06.mtl
o Grass_006
v -0.047400 -0.008080 0.027071
v -0.061425 -0.016649 0.054291
v -0.014126 -0.001326 0.046341
v -0.028151 -0.009896 0.073561
v -0.076595 0.187210 0.077206
v -0.056351 0.147388 0.049745
v -0.063840 0.142813 0.064279
v -0.046074 0.146419 0.074568
v -0.038585 0.150994 0.060034
v -0.051117 0.108677 0.037711
v -0.061903 0.102086 0.058646
v -0.036312 0.107280 0.073467
v -0.025526 0.113871 0.052532
v 0.086103 -0.008080 0.093765
v 0.087310 -0.016649 0.063168
v 0.047802 -0.001326 0.090363
v 0.049010 -0.009896 0.059766
v 0.091375 0.187210 0.035989
v 0.093534 0.147388 0.065282
v 0.094178 0.142813 0.048945
v 0.073729 0.146418 0.047129
v 0.073084 0.150994 0.063466
v 0.096751 0.108677 0.077060
v 0.097679 0.102086 0.053528
v 0.068222 0.107280 0.050911
v 0.067294 0.113871 0.074443
v 0.020725 -0.007878 -0.036937
v 0.056380 -0.018354 -0.048344
v 0.008620 0.000378 -0.082359
v 0.044274 -0.010098 -0.093765
v 0.089303 0.230869 -0.055039
v 0.056554 0.182186 -0.040310
v 0.075591 0.176592 -0.046400
v 0.069127 0.181000 -0.070652
v 0.050090 0.186594 -0.064562
v 0.044368 0.134861 -0.031689
v 0.071791 0.126803 -0.040462
v 0.062480 0.133153 -0.075397
v 0.035058 0.141210 -0.066624
v -0.040766 -0.008094 -0.072630
v -0.070635 -0.016530 -0.068570
v -0.037517 -0.001446 -0.034918
v -0.067386 -0.009882 -0.030858
v -0.097679 0.184153 -0.067865
v -0.069649 0.144952 -0.074966
v -0.085598 0.140447 -0.072798
v -0.083863 0.143997 -0.052662
v -0.067915 0.148501 -0.054830
v -0.058781 0.106844 -0.080098
v -0.081753 0.100355 -0.076975
v -0.079255 0.105469 -0.047970
v -0.056282 0.111957 -0.051093
v 0.015639 -0.008227 -0.010515
v -0.006057 -0.015407 -0.024209
v -0.002875 -0.002569 0.015851
v -0.024571 -0.009749 0.002157
v -0.024076 0.155401 -0.038545
v -0.001916 0.122035 -0.027840
v -0.013500 0.118202 -0.035151
v -0.023386 0.121223 -0.021074
v -0.011801 0.125057 -0.013762
v 0.007978 0.089600 -0.025240
v -0.008708 0.084078 -0.035772
v -0.022948 0.088430 -0.015494
v -0.006261 0.093952 -0.004961
vn -0.8905 0.0131 -0.4547
vn -0.8909 0.0163 -0.4539
vn -0.8910 0.0168 -0.4538
vn -0.4957 -0.0338 0.8678
vn -0.4870 -0.0816 0.8696
vn 0.8792 0.0616 0.4724
vn 0.8662 0.1217 0.4846
vn 0.4844 0.0947 -0.8697
vn 0.4571 0.2125 -0.8637
vn -0.8824 -0.0440 -0.4685
vn -0.8692 -0.1093 -0.4822
vn -0.8841 -0.0334 -0.4660
vn -0.4498 -0.2391 0.8605
vn -0.4111 -0.3618 0.8367
vn -0.4482 -0.2449 0.8597
vn 0.7955 0.3242 0.5119
vn 0.7015 0.4915 0.5161
vn 0.7847 0.3471 0.5136
vn 0.3669 0.4749 -0.7999
vn 0.2848 0.6381 -0.7154
vn 0.3699 0.4678 -0.8027
vn -0.4854 -0.0900 0.8697
vn -0.4870 -0.0817 0.8696
vn 0.8635 0.1324 0.4866
vn 0.4616 0.1948 -0.8654
vn 0.9947 -0.0818 0.0622
vn 0.9991 -0.0067 0.0413
vn 0.9993 0.0058 0.0378
vn 0.0729 -0.0870 -0.9935
vn 0.0714 -0.0952 -0.9929
vn -0.9844 0.1552 -0.0823
vn -0.9863 0.1448 -0.0795
vn -0.0618 0.1469 0.9872
vn -0.0478 0.2196 0.9744
vn 0.9968 0.0785 0.0173
vn 0.9974 0.0688 0.0201
vn 0.9967 0.0793 0.0171
vn 0.0540 -0.1877 -0.9807
vn 0.0363 -0.2778 -0.9599
vn 0.0558 -0.1783 -0.9824
vn -0.9671 0.2326 -0.1033
vn -0.9222 0.3614 -0.1376
vn -0.9643 0.2428 -0.1061
vn -0.0060 0.4228 0.9062
vn 0.0332 0.5934 0.8042
vn -0.0022 0.4398 0.8981
vn 0.0712 -0.0965 -0.9928
vn 0.0713 -0.0957 -0.9928
vn -0.9866 0.1430 -0.0790
vn -0.9863 0.1444 -0.0794
vn -0.0498 0.2094 0.9766
vn 0.2818 -0.0818 0.9560
vn 0.3029 -0.0067 0.9530
vn 0.3062 0.0058 0.9519
vn 0.9586 -0.0870 -0.2713
vn 0.9574 -0.0952 -0.2725
vn -0.2594 0.1552 -0.9532
vn -0.2626 0.1448 -0.9540
vn -0.9488 0.1469 0.2796
vn -0.9320 0.2196 0.2883
vn 0.3246 0.0785 0.9426
vn 0.3223 0.0688 0.9441
vn 0.3248 0.0793 0.9424
vn 0.9401 -0.1877 -0.2847
vn 0.9145 -0.2778 -0.2942
vn 0.9423 -0.1783 -0.2835
vn -0.2337 0.2326 -0.9441
vn -0.1861 0.3614 -0.9137
vn -0.2301 0.2428 -0.9424
vn -0.8536 0.4228 0.3043
vn -0.7444 0.5934 0.3062
vn -0.8447 0.4398 0.3051
vn 0.9573 -0.0965 -0.2727
vn -0.2632 0.1430 -0.9541
vn -0.2627 0.1447 -0.9540
vn -0.9347 0.2094 0.2872
vn -0.1115 -0.0818 -0.9904
vn -0.1328 -0.0067 -0.9911
vn -0.1363 0.0058 -0.9907
vn -0.9911 -0.0870 0.1007
vn -0.9902 -0.0952 0.1021
vn 0.0899 0.1552 0.9838
vn 0.0930 0.1448 0.9851
vn 0.9830 0.1469 -0.1106
vn 0.9679 0.2196 -0.1221
vn -0.1560 0.0785 -0.9846
vn -0.1534 0.0688 -0.9858
vn -0.1562 0.0793 -0.9845
vn -0.9752 -0.1877 0.1171
vn -0.9517 -0.2778 0.1310
vn -0.9772 -0.1783 0.1156
vn 0.0662 0.2326 0.9703
vn 0.0246 0.3614 0.9321
vn 0.0630 0.2428 0.9680
vn 0.8935 0.4228 -0.1515
vn 0.7862 0.5934 -0.1723
vn 0.8848 0.4398 -0.1538
vn -0.9901 -0.0965 0.1023
vn -0.9902 -0.0955 0.1021
vn 0.0935 0.1430 0.9853
vn 0.0931 0.1446 0.9851
vn 0.9704 0.2094 -0.1205
vn 0.5512 -0.0818 -0.8304
vn 0.5353 -0.0067 -0.8446
vn 0.5324 0.0058 -0.8465
vn -0.8240 -0.0870 -0.5599
vn -0.8242 -0.0952 -0.5583
vn -0.5635 0.1552 0.8114
vn -0.5620 0.1448 0.8144
vn 0.8241 0.1469 0.5471
vn 0.8200 0.2196 0.5286
vn 0.5134 0.0785 -0.8546
vn 0.5161 0.0688 -0.8538
vn 0.5132 0.0793 -0.8546
vn -0.8223 -0.1877 -0.5372
vn -0.8132 -0.2778 -0.5114
vn -0.8229 -0.1783 -0.5396
vn -0.5730 0.2326 0.7859
vn -0.5803 0.3614 0.7299
vn -0.5740 0.2428 0.7820
vn 0.7818 0.4228 0.4583
vn 0.7131 0.5934 0.3734
vn 0.7767 0.4398 0.4510
vn -0.8242 -0.0965 -0.5580
vn -0.8242 -0.0957 -0.5582
vn -0.5617 0.1430 0.8149
vn -0.5619 0.1446 0.8144
vn 0.8208 0.2094 0.5314
vn 0.8199 0.2196 0.5286
vt 0.239544 0.031070
vt 0.277033 0.140732
vt 0.253850 0.148175
vt 0.270032 0.021095
vt 0.309436 0.024842
vt 0.341361 0.033139
vt 0.306470 0.141986
vt 0.381149 0.033553
vt 0.329584 0.147074
vt 0.284697 0.183151
vt 0.298321 0.231184
vt 0.268035 0.187116
vt 0.305043 0.181368
vt 0.320767 0.182839
vt 0.338085 0.191975
vt 0.358631 0.151270
vt 0.437792 0.038345
vt 0.471378 0.150976
vt 0.448092 0.157584
vt 0.469142 0.031308
vt 0.508650 0.033891
vt 0.540077 0.042169
vt 0.500949 0.152891
vt 0.579230 0.047110
vt 0.524581 0.158693
vt 0.478356 0.191973
vt 0.493182 0.237187
vt 0.462046 0.197185
vt 0.498836 0.192154
vt 0.514384 0.194513
vt 0.532393 0.202599
vt 0.554026 0.164455
vt 0.023281 0.027689
vt 0.064526 0.165327
vt 0.036069 0.173445
vt 0.061596 0.019034
vt 0.109900 0.022127
vt 0.148334 0.032195
vt 0.100681 0.167619
vt 0.196207 0.038171
vt 0.129581 0.174675
vt 0.073125 0.215436
vt 0.091324 0.270687
vt 0.053194 0.221834
vt 0.098163 0.215624
vt 0.117174 0.218481
vt 0.139203 0.228337
vt 0.165588 0.181670
vt 0.626844 0.037937
vt 0.659914 0.148810
vt 0.636991 0.155318
vt 0.657705 0.031008
vt 0.696598 0.033548
vt 0.727536 0.041694
vt 0.689025 0.150694
vt 0.766079 0.046556
vt 0.712289 0.156404
vt 0.666786 0.189169
vt 0.681384 0.233677
vt 0.650731 0.194300
vt 0.686948 0.189346
vt 0.702253 0.191666
vt 0.719981 0.199625
vt 0.741275 0.162075
vt 0.839652 0.043509
vt 0.867611 0.137935
vt 0.848093 0.143446
vt 0.865930 0.037657
vt 0.899030 0.039869
vt 0.925351 0.046842
vt 0.892383 0.139566
vt 0.958150 0.051041
vt 0.912176 0.144448
vt 0.873413 0.172308
vt 0.885880 0.210207
vt 0.859750 0.176669
vt 0.890554 0.172464
vt 0.903576 0.174432
vt 0.918675 0.181218
vt 0.936841 0.149314
s 1
usemtl Material_#25
f 1/1/1 11/2/2 10/3/3
f 2/4/4 4/5/4 11/2/5
f 4/5/6 3/6/6 12/7/7
f 3/6/8 1/8/8 13/9/9
f 7/10/10 5/11/11 6/12/12
f 8/13/13 5/11/14 7/10/15
f 9/14/16 5/11/17 8/13/18
f 6/15/19 5/11/20 9/14/21
f 11/2/2 7/10/10 10/3/3
f 12/7/22 8/13/13 11/2/23
f 13/9/24 8/13/18 12/7/7
f 10/16/25 6/15/19 13/9/9
f 14/17/26 24/18/27 23/19/28
f 15/20/29 17/21/29 24/18/30
f 17/21/31 16/22/31 25/23/32
f 16/22/33 14/24/33 26/25/34
f 20/26/35 18/27/36 19/28/37
f 21/29/38 18/27/39 20/26/40
f 22/30/41 18/27/42 21/29/43
f 19/31/44 18/27/45 22/30/46
f 24/18/27 20/26/35 23/19/28
f 25/23/47 21/29/38 24/18/48
f 26/25/49 21/29/43 25/23/50
f 23/32/51 19/31/44 26/25/34
f 27/33/52 37/34/53 36/35/54
f 28/36/55 30/37/55 37/34/56
f 30/37/57 29/38/57 38/39/58
f 29/38/59 27/40/59 39/41/60
f 33/42/61 31/43/62 32/44/63
f 34/45/64 31/43/65 33/42/66
f 35/46/67 31/43/68 34/45/69
f 32/47/70 31/43/71 35/46/72
f 37/34/53 33/42/61 36/35/54
f 38/39/73 34/45/64 37/34/56
f 39/41/74 34/45/69 38/39/75
f 36/48/76 32/47/70 39/41/60
f 40/49/77 50/50/78 49/51/79
f 41/52/80 43/53/80 50/50/81
f 43/53/82 42/54/82 51/55/83
f 42/54/84 40/56/84 52/57/85
f 46/58/86 44/59/87 45/60/88
f 47/61/89 44/59/90 46/58/91
f 48/62/92 44/59/93 47/61/94
f 45/63/95 44/59/96 48/62/97
f 50/50/78 46/58/86 49/51/79
f 51/55/98 47/61/89 50/50/99
f 52/57/100 47/61/94 51/55/101
f 49/64/102 45/63/95 52/57/85
f 53/65/103 63/66/104 62/67/105
f 54/68/106 56/69/106 63/66/107
f 56/69/108 55/70/108 64/71/109
f 55/70/110 53/72/110 65/73/111
f 59/74/112 57/75/113 58/76/114
f 60/77/115 57/75/116 59/74/117
f 61/78/118 57/75/119 60/77/120
f 58/79/121 57/75/122 61/78/123
f 63/66/104 59/74/112 62/67/105
f 64/71/124 60/77/115 63/66/125
f 65/73/126 60/77/120 64/71/127
f 62/80/128 58/79/121 65/73/129
f 1/1/1 2/4/1 11/2/2
f 4/5/4 12/7/22 11/2/23
f 3/6/6 13/9/24 12/7/7
f 1/8/8 10/16/25 13/9/9
f 7/10/10 6/12/12 10/3/3
f 8/13/13 7/10/15 11/2/23
f 13/9/24 9/14/16 8/13/18
f 6/15/19 9/14/21 13/9/9
f 14/17/26 15/20/26 24/18/27
f 17/21/29 25/23/47 24/18/48
f 16/22/31 26/25/49 25/23/50
f 14/24/33 23/32/51 26/25/34
f 20/26/35 19/28/37 23/19/28
f 21/29/38 20/26/40 24/18/48
f 26/25/49 22/30/41 21/29/43
f 19/31/44 22/30/46 26/25/34
f 27/33/52 28/36/52 37/34/53
f 30/37/55 38/39/73 37/34/56
f 29/38/57 39/41/74 38/39/75
f 27/40/59 36/48/76 39/41/60
f 33/42/61 32/44/63 36/35/54
f 34/45/64 33/42/66 37/34/56
f 39/41/74 35/46/67 34/45/69
f 32/47/70 35/46/72 39/41/60
f 40/49/77 41/52/77 50/50/78
f 43/53/80 51/55/98 50/50/99
f 42/54/82 52/57/100 51/55/101
f 40/56/84 49/64/102 52/57/85
f 46/58/86 45/60/88 49/51/79
f 47/61/89 46/58/91 50/50/99
f 52/57/100 48/62/92 47/61/94
f 45/63/95 48/62/97 52/57/85
f 53/65/103 54/68/103 63/66/104
f 56/69/106 64/71/124 63/66/125
f 55/70/108 65/73/126 64/71/127
f 53/72/110 62/80/128 65/73/129
f 59/74/112 58/76/114 62/67/105
f 60/77/115 59/74/117 63/66/125
f 65/73/126 61/78/118 60/77/120
f 58/79/121 61/78/123 65/73/129
